<?xml version="1.0" ?><svg height="50px" id="Слой_1" style="enable-background:new 0 0 50 50;" version="1.1" viewBox="0 0 50 50" width="50px" xml:space="preserve" xmlns="http://www.w3.org/2000/svg" xmlns:xlink="http://www.w3.org/1999/xlink"><style type="text/css">
	.st0{fill:#374163;}
</style><g><path class="st0" d="M19.86288,46.4149c-0.19918,0-0.4002-0.02398-0.59938-0.0793   c-1.22826-0.33012-1.95489-1.59158-1.62477-2.81984L27.91666,5.29213c0.33012-1.2301,1.60264-1.96227,2.81984-1.62477   c1.22826,0.33012,1.95489,1.59158,1.62477,2.81984L22.08334,44.71083C21.80855,45.73807,20.87721,46.4149,19.86288,46.4149z"/><path class="st0" d="M12.04517,37.09967c-0.59384,0-1.18584-0.22684-1.63584-0.68237l-9.7431-9.85006   c-0.89445-0.90368-0.88708-2.36247,0.0166-3.25508c0.90552-0.89814,2.36062-0.88892,3.25508,0.0166l9.7431,9.85006   c0.89445,0.90368,0.88708,2.36247-0.0166,3.25508C13.21441,36.87836,12.62979,37.09967,12.04517,37.09967z"/><path class="st0" d="M2.30207,27.24961c-0.58831,0-1.17847-0.225-1.62846-0.67315c-0.89814-0.89999-0.89814-2.35693,0-3.25692   l9.7431-9.7431c0.89999-0.8963,2.35693-0.8963,3.25692,0c0.89814,0.89999,0.89814,2.35693,0,3.25692l-9.7431,9.7431   C3.48053,27.02461,2.89038,27.24961,2.30207,27.24961z"/><path class="st0" d="M37.84787,37.09967c-0.58831,0-1.17847-0.22499-1.62846-0.67315c-0.89814-0.89999-0.89814-2.35693,0-3.25692   l9.85006-9.85006c0.89999-0.8963,2.35693-0.8963,3.25692,0c0.89814,0.89999,0.89814,2.35693,0,3.25692l-9.85006,9.85006   C39.02634,36.87467,38.43618,37.09967,37.84787,37.09967z"/><path class="st0" d="M47.69793,27.24961c-0.58463,0-1.16925-0.22131-1.61924-0.66577l-9.85006-9.7431   c-0.90368-0.89261-0.91105-2.3514-0.0166-3.25508c0.88892-0.90552,2.34771-0.91474,3.25508-0.0166l9.85006,9.7431   c0.90368,0.89261,0.91105,2.3514,0.0166,3.25508C48.88378,27.02276,48.29177,27.24961,47.69793,27.24961z"/></g></svg>